<?xml version="1.0" encoding="utf-8"?>
<!-- Generator: Adobe Illustrator 25.4.0, SVG Export Plug-In . SVG Version: 6.00 Build 0)  -->
<svg version="1.1" id="Layer_1" xmlns="http://www.w3.org/2000/svg" xmlns:xlink="http://www.w3.org/1999/xlink" x="0px" y="0px"
	 viewBox="0 0 512 512" style="enable-background:new 0 0 512 512;" xml:space="preserve">
<style type="text/css">
	.st0{fill:#797F40;}
</style>
<g>
	<path class="st0" d="M473,322.7h-20.1c-1.6-3.4-3.7-6.7-6.3-9.7c-7-8.2-16.3-13.4-26.2-15.3c2.3-12.5-0.8-25.8-9.7-36.3
		c-14.6-17.2-39.8-21.1-59-10c-1.2-1.9-2.5-3.7-4-5.5c-7.5-8.8-17.6-14.1-28.4-15.7c1.4-2.4,2.7-4.8,3.6-7.4
		c15.6,7.2,34.8,5.5,49-5.8c19.6-15.6,22.4-43.7,6.3-62.8c0,0-0.1-0.1-0.1-0.1c1.5-0.9,2.9-1.9,4.2-3c19.6-15.6,22.4-43.7,6.3-62.8
		c-7-8.2-16.3-13.4-26.2-15.3c2.3-12.5-0.8-25.8-9.7-36.3c-14.6-17.2-39.8-21.1-59-10c-1.2-1.9-2.5-3.7-4-5.5
		c-16.1-19-45.1-21.7-64.7-6.1c-9.3,7.4-14.8,17.6-16.3,28.4c-14.4-4.4-30.7-1.9-43.2,8.1c-19.6,15.6-22.4,43.7-6.3,62.8
		c1.1,1.3,2.2,2.5,3.4,3.6c-14.6,7.5-24.6,22.3-24.6,39.5c0,24.6,20.6,44.6,45.9,44.6c0.9,0,1.9,0,2.8-0.1
		c-3.8,5.7-7.7,11.8-11.6,18.1H39c-18.8,0-34,15.2-34,33.9v251.5h107.1l-0.3-66.4l-1.3,0c-14.9-3-72.8-46.7-61.2-173.9
		c0,0,58,5.5,77.9,45.1c-14.3,35.4-25,75.2-28.4,108.2l16.2,0c17.4-114.6,76.9-195.9,122.1-253.6l10.6-12.5
		c-5.3-5.2-8.6-12.4-8.6-20.3c0-15.9,13.3-28.9,29.7-28.9c16.4,0,29.7,12.9,29.7,28.9c0,15.3-12.2,27.7-27.7,28.8l-13.7,15.2
		c0,0,0,0,0,0c-41.7,42.5-119.4,180.7-123.1,275.3c-0.6,16.1-0.5,38,0.3,54.2h16.5c-0.5-13.8-1.4-39.7,0.1-52.4
		c10.9-93,49.4-167.9,87.9-224.9c1.5,2.6,3.4,5.1,5.6,7.8c7.5,8.8,17.7,14.1,28.4,15.7c-3.1,5.2-5.2,10.8-6,16.6
		c-14.4-4.4-30.7-1.9-43.2,8.1c-19.6,15.6-22.4,43.7-6.3,62.8c1.1,1.3,2.2,2.5,3.4,3.6c-14.6,7.5-24.6,22.3-24.6,39.5
		c0,24.6,20.6,44.6,45.9,44.6c0.9,0,1.9,0,2.8-0.1c-2.4,3.6-4.8,7.3-7.2,11.1c-14.8-19.6-41-22.2-58.8-5.9
		c-16.4,15.1-17,51.5-11.8,73.6h14.4c-6.4-15.4-5.3-50.8,6.7-62.5c11.3-11,28.4-10.1,38.3,5.8c0.7,1.2,1.5,2.2,2.1,3.4
		c-9.8,16.4-19.5,34.4-28.6,53.3h19.3c23.6-46.7,51.5-85.4,75.4-116l10.6-12.5c-5.3-5.2-8.6-12.4-8.6-20.3
		c0-15.9,13.3-28.9,29.7-28.9c16.4,0,29.7,12.9,29.7,28.9c0,15.3-12.2,27.7-27.7,28.8L315,400.5c0,0,0,0,0,0
		c-19.1,19.4-45.6,58.8-69.2,104.8h38.1c0.2-14.6,13-24.7,27.5-28.1c3.6-0.8,7.1-3.1,10.4-3.4c14.8,5.3,31.9,3.1,45-7.2h81.7
		c9.4,0,10.2-0.9,10.2,8.2V507h18v-41.7c0-9.1-7.6-16.5-17-16.5h-42.5c4.5-1.7,8.7-4,12.6-7.1c19.6-15.6,22.4-43.7,6.3-62.8
		c0,0-0.1-0.1-0.1-0.1c1.5-0.9,2.9-1.9,4.2-3c11.3-9,17-22.2,16.7-35.3c26.3,0.3,32.3,10.6,32.3,28.9v137.1H507V356.6
		C507,337.9,491.8,322.7,473,322.7z M135.4,294.9c-17.6-17-39.1-42.2-99.3-43.8c0,0-20.4,155.9,56.4,197.1v39.3h-70V266.7
		c0-18.7,6.2-29.1,34-28.9h108.1C154.5,255.5,144.5,274.8,135.4,294.9z M256.8,225.8c-3.7-4.3-5.8-9.3-6.5-14.5
		c9.2-12.9,18.3-24.8,26.9-35.7c21.3-3.9,37.3-22,37.3-43.8c0-24.6-20.6-44.6-45.9-44.6s-45.9,20-45.9,44.6c0,7.3,1.7,14.2,4.8,20.4
		c-7.1,6-15.7,15.6-25.1,27.8c-5,3.8-11.4,6.2-18.3,6.2c-16.4,0-29.7-12.9-29.7-28.9c0-15.1,11.9-27.4,27-28.7
		c29.8,11.2,25.7-24.8,2.4-17.5c-4.5-1.7-8.6-2.9-11.9-6.8c-10.4-12.3-8.6-30.5,4.1-40.6c9.9-7.9,23.5-10.2,34-4.2
		c4,30.8,41.8,9,14.7-7.4c-0.8-9.2,2.9-18.5,10.7-24.8c12.7-10.1,31.4-8.4,41.9,3.9c1.6,1.9,2.9,4,4,6.2
		c-16,23.2,21.4,34.2,18.3,4.5c12.6-9.1,30.6-7.2,40.7,4.8c6.4,7.5,8.2,17.3,5.7,26c-31.3,0.9-13.9,39.9,10.7,15.4
		c7.4,0.8,14.5,4.3,19.6,10.3c10.4,12.3,8.6,30.5-4.1,40.6c-2.3,1.9-4.9,3.3-7.5,4.4c-29.2-21.2-40.4,25.6-2.7,17.1
		c1.4,1.1,2.7,2.4,3.9,3.8c10.4,12.3,8.6,30.5-4.1,40.6c-10.5,8.4-25.3,8.6-35.9,1.4c0.1-37.8-48.1-12.9-16.7,6.6
		c-1.2,6.4-4.7,12.4-10.3,16.9C286,239.9,267.2,238.1,256.8,225.8z M279.9,479.1c5.6-9.2,11.3-18,16.9-26.4c1.5,2.6,3.4,5.1,5.6,7.8
		c0.8,0.9,1.6,1.8,2.4,2.6C294.6,466.3,286.5,471.6,279.9,479.1z M380.5,448.8c0.2-0.4,0.4-0.9,0.5-1.3c1,0.5,2.1,0.9,3.2,1.3H380.5
		z M430.1,363.6c-2.3,1.9-4.9,3.3-7.5,4.4c-29.2-21.2-40.4,25.6-2.7,17.1c1.4,1.1,2.7,2.4,3.9,3.8c10.4,12.3,8.6,30.5-4.1,40.6
		c-10.5,8.4-25.3,8.6-35.9,1.4c0.1-37.8-48.1-12.9-16.7,6.6c-1.2,6.4-4.7,12.4-10.3,16.9c-12.7,10.1-31.4,8.4-41.9-3.9
		c-3.7-4.3-5.8-9.3-6.5-14.5c9.2-12.9,18.3-24.8,26.9-35.7c21.3-3.9,37.3-22,37.3-43.8c0-24.6-20.6-44.6-45.9-44.6
		c-25.4,0-45.9,20-45.9,44.6c0,7.3,1.7,14.2,4.8,20.4c-7.1,6-15.7,15.6-25.1,27.8c-5,3.8-11.4,6.2-18.3,6.2
		c-16.4,0-29.7-12.9-29.7-28.9c0-15.1,11.9-27.4,27-28.7c29.8,11.2,25.7-24.8,2.4-17.5c-4.5-1.7-8.6-2.9-11.9-6.8
		c-10.4-12.3-8.6-30.5,4.1-40.6c9.9-7.9,23.5-10.2,34-4.2c4,30.8,41.8,9,14.7-7.4c-0.8-9.2,2.9-18.5,10.7-24.8
		c12.7-10.1,31.4-8.4,41.9,3.9c1.6,1.9,2.9,4,4,6.2c-16,23.2,21.4,34.2,18.3,4.5c12.6-9.1,30.6-7.2,40.7,4.8
		c6.4,7.5,8.2,17.3,5.7,26c-31.3,0.9-13.9,39.9,10.7,15.4c7.4,0.8,14.5,4.3,19.6,10.3C444.6,335.3,442.8,353.5,430.1,363.6z"/>
</g>
</svg>
