<?xml version="1.0" encoding="utf-8"?>
<!-- Generator: Adobe Illustrator 25.4.0, SVG Export Plug-In . SVG Version: 6.00 Build 0)  -->
<svg version="1.1" id="Layer_1" xmlns="http://www.w3.org/2000/svg" xmlns:xlink="http://www.w3.org/1999/xlink" x="0px" y="0px"
	 viewBox="0 0 512 512" style="enable-background:new 0 0 512 512;" xml:space="preserve">
<style type="text/css">
	.st0{fill:#C70A50;}
	.st1{fill:#F0ADA0;}
	.st2{fill:#FEDDCE;}
	.st3{fill:#FECDBD;}
	.st4{fill:#46CCC8;}
	.st5{fill:#D3186D;}
	.st6{fill:#26AAA7;}
	.st7{fill:#E89C8C;}
	.st8{fill:#E89B8C;}
	.st9{fill:#FECDBE;}
	.st10{fill:#FEFEFE;}
</style>
<g id="_x30_9">
	<path class="st0" d="M5,238.9c5.9-15.9,11.9-31.8,17.7-47.7c11.5-31.4,22.8-62.9,34.2-94.4c2.1-5.9,5.7-7.6,11.4-5.4
		c7.4,2.8,14.6,5.9,21.9,8.9c-1.5,3.5-4.6,5.4-6,9.3c-14.9,41.7-30.3,83.2-45.1,124.9c-2.8,7.9-7.5,15.5-6.6,24.7
		c-7.6-3.1-15.2-6.3-22.9-9.3c-2.2-0.9-3.1-3.1-4.6-4.6C5,243.1,5,241,5,238.9z"/>
	<path class="st1" d="M335.4,354.1c2.6,9,3.7,17.8-1.7,26.2c-1,1.5-1.8,3-3.7,3.1c-0.6-0.8-1.2-1.8-1.9-2.4
		c-14.3-12-28.5-24-42.8-35.8c-4.5-3.7-11.3-2-14.6,3.1c-2.6,4-1,11,3.1,14.5c7,6,14,12,21,18.1c1.6,7.3,2.8,14.9,0.3,22
		c-5.2,14.8-21,20.1-33.3,11.4c-6.1-4.3-11.9-9.4-17.8-14.1c1.5-4.4,4.9-7.3,7.5-10.8c6.5-8.8,5.5-22.3-2.5-29.9
		c-3-3.6-7-4.7-11.2-5.4c-5.3-0.9-9.7,1.9-14.5,3.3c3.6-9.7,2.7-18.4-4.7-25.7c-0.9-2.1-2.7-3-4.4-4c-7.4-4.1-14.4-2.3-21.3,1.9
		c0.4-1.7,0.7-3.4,1.1-5.1c1.9-8.8-0.5-15.9-6.8-21.6c-3.2-3.5-7-5-11.6-5.4c-4.8-0.4-8.7,2-13,3.3c0.2-1.2,0.4-2.4,0.7-3.6
		c2.1-9.8-0.6-17.9-7.5-23.1c-4.1-4.4-8.8-5.5-14.5-4.6c-6,0.9-9.8,5.1-13.9,8.9c-4.9-2.7-9.1-6.7-13.6-10.1
		c-14.1-10.8-28.2-21.8-42.3-32.6c0.2-1,0.2-2.1,0.6-3.1c9.4-25.9,18.8-51.8,28.4-77.6c3.6-9.8,6.3-20,11.3-29.2
		c10.6,4.4,20.6,10.5,32.1,12.4c6.2,1,12.2-0.5,18.4,0.2c19.5,2.2,39.4,1.5,58.3,9.1c-1.1,1.3-2.1,2.7-3.2,4
		c-16.7,17.7-35,33.3-54.4,47.4c-2.1,1.5-3.7,3.2-4.8,5.8c-4.2,9.2,3.6,18.7,12.5,21.8c1.2,2.4,3.5,2.5,5.5,3
		c11.1,3.1,21.6,0.2,31.8-4.7c11.4-5.5,20.9-14.2,30.6-22.6c5.8-5,9.9-4.9,15,0.7c9.8,10.9,21.2,19.2,34.1,25.2
		c14.2,6.6,28.8,9,44.2,7.1c3-0.4,6.1-2.3,9.6,0.5c21.7,17.7,43.7,35,65.6,52.5c3.7,6.4,4.4,13.5,4,20.8c-0.3,5-2,9.2-5.7,12.3
		c-4.9-2.6-8.7-6.8-13-10.3c-14-11.4-27.9-23.1-41.8-34.7c-3.6-3-7.2-2.4-10.9-0.1c-3.5,2.1-4.3,5.4-4.3,9.4c0,5.4,3.5,8.1,6.8,11
		c9.5,8.2,19.6,15.7,28.5,24.6c0.1,0.6,0.4,1.1,1,1.1l0,0c0.9,6.5,3.2,12.8,0.9,19.5c-1.3,3.8-1.9,8.3-6.3,9.8
		c-0.2-0.3-0.4-0.6-0.6-0.8c-15.9-13.3-31.8-26.8-47.8-40c-3.6-3-7.7-3.6-11.7,0c-6.2,5.7-5.8,13,1.1,18.7
		c9.4,7.8,18.7,15.7,28.1,23.5C334.9,353.2,334.5,353.6,335.4,354.1L335.4,354.1z"/>
	<path class="st2" d="M407,287.9c-21.9-17.5-43.9-34.8-65.6-52.5c-3.5-2.8-6.6-0.9-9.6-0.5c-15.4,1.9-30-0.5-44.2-7.1
		c-12.9-6-24.3-14.3-34.1-25.2c-5.1-5.6-9.2-5.8-15-0.7c-9.7,8.4-19.2,17.1-30.6,22.6c-10.1,4.8-20.6,7.8-31.8,4.7
		c-2-0.5-4.3-0.6-5.5-3c1.9-3.6,5.2-5.2,8.1-7.4c23.6-17.8,45.4-37.9,65.5-60.3c6.1-6.9,13.7-10.6,22.8-10.2
		c9.6,0.4,19,2.8,28.4,4.3c17.8,3,35.6,5.9,53.3,9.3c13.7,2.7,27,2.9,40-3.5c6.6-3.3,13.7-5.5,20.6-8.2
		c13.2,36.3,26.4,72.7,39.6,109c-7.9,5.3-15.8,10.4-23.6,15.8C419.2,279.2,413.2,283.6,407,287.9z"/>
	<path class="st3" d="M409.4,150.2c-6.9,2.7-14,4.9-20.6,8.2c-13.1,6.5-26.3,6.2-40,3.5c-17.7-3.5-35.5-6.4-53.3-9.3
		c-9.4-1.6-18.8-4-28.4-4.3c-9.1-0.3-16.6,3.4-22.8,10.2c-20,22.4-41.9,42.5-65.5,60.3c-2.9,2.2-6.3,3.8-8.1,7.4
		c-8.9-3.1-16.7-12.6-12.5-21.8c1.1-2.5,2.7-4.2,4.8-5.8c19.4-14,37.7-29.6,54.4-47.4c1.2-1.2,2.1-2.6,3.2-4
		c5.7-3,9.1-8.9,13.7-13.4c6.7-6.5,14.4-10,23.2-9c11.3,1.4,22.4,3.7,33.6,5.6c17.3,3,34.6,5.6,51.8,9.2c15.8,3.4,29.8-2.5,43.9-8.4
		c4.6-1.9,9.1-3.8,13.7-5.6C403.5,133.9,406.4,142,409.4,150.2z"/>
	<path class="st4" d="M409.4,150.2c-3-8.1-5.9-16.3-8.9-24.4c-3.8-13.9-3.7-14.4,8.9-19.8c5.4-2.3,10.9-4.5,16.3-6.7
		c0.5,9.1,4.9,16.8,7.8,24.9c11.9,33.5,24.1,66.8,36.4,100.1c4.2,11.3,7.3,23,12.7,33.8c-7.3,3.2-14.5,6.7-21.9,9.6
		c-5.4,2.1-8.2-0.2-11.6-8.4C435.8,222.8,422.6,186.5,409.4,150.2z"/>
	<path class="st5" d="M111.9,125.7c-5,9.2-7.6,19.4-11.3,29.2c-9.6,25.8-19,51.7-28.4,77.6c-0.3,1-0.4,2-0.6,3.1
		c-2.1,5.4-4.3,10.7-6.2,16.1c-1.2,3.4-3.4,6.6-2.6,10.6c-5,6.8-10.9,6.4-17.4,2.9c-4.2-2.3-8.6-4-13-6c-0.9-9.2,3.8-16.8,6.6-24.7
		c14.9-41.7,30.2-83.2,45.1-124.9c1.4-3.9,4.5-5.8,6-9.3c5.1,2.3,10.1,4.8,15.2,7c8.2,3.6,9.5,6.3,7,15.3
		C112.1,123.6,112,124.6,111.9,125.7z"/>
	<path class="st6" d="M482.5,258.1c-5.4-10.7-8.6-22.5-12.7-33.8c-12.3-33.3-24.5-66.6-36.4-100.1c-2.9-8.2-7.3-15.9-7.8-24.9
		c5.6-2.5,11.1-5,16.7-7.4c6.8-2.9,10.3-1.3,13,6.1c12.6,34.7,25.2,69.5,37.9,104.2c4.2,11.5,8.4,23,12.5,34.6
		c2.5,7.1,1,10.9-5.6,13.8C494.4,253.2,488.4,255.6,482.5,258.1z"/>
	<path class="st7" d="M62.8,262.3c-0.7-4,1.5-7.2,2.6-10.6c1.9-5.4,4.1-10.7,6.2-16.1c14.1,10.9,28.1,21.8,42.3,32.6
		c4.5,3.4,8.7,7.4,13.6,10.1c-1.2,1.8-2.2,4.1-3.8,5.5c-4.3,3.9-6.1,10.6-11.9,12.7C96,284.3,79.4,273.3,62.8,262.3z"/>
	<path class="st8" d="M370.8,321c-9-8.9-19-16.4-28.5-24.6c-3.3-2.9-6.8-5.6-6.8-11c0-4,0.8-7.3,4.3-9.4c3.7-2.3,7.3-2.9,10.9,0.1
		c13.9,11.6,27.8,23.3,41.8,34.7c4.3,3.5,8.1,7.7,13,10.3c-6.9,9.5-19.5,11-29.5,3.6c-1.3-1-2.3-2.6-4.1-2.6c0,0,0,0,0,0
		C371.4,321.7,371.1,321.4,370.8,321z"/>
	<path class="st3" d="M193.1,329.6c6.8-4.2,13.8-6,21.3-1.9c1.8,1,3.5,1.9,4.4,4c-1.8-0.2-3,0.8-4.3,1.9c-5.9,5.1-9.9,12.1-15,17.9
		c-2,2.3-3.7,4.9-5.5,7.4c-9.1,13.4-9,19.7,0.3,32.5c-6.8,3.9-13.3,2.4-19.1-2.3c-6.8-5.5-9.6-13.2-8.1-22.4
		c0.3-1.7,0.9-3.4,0.7-5.2c0,0,0,0,0,0c0.4-0.4,0.7-0.7,1.1-1.1c2.9-3.5,5.9-7,8.7-10.6C182.8,343.1,187.4,335.9,193.1,329.6z"/>
	<path class="st3" d="M111.9,296.5c5.8-2.1,7.6-8.8,11.9-12.7c1.6-1.4,2.5-3.6,3.8-5.5c4.2-3.8,8-8,13.9-8.9
		c5.7-0.9,10.4,0.2,14.5,4.6c-8.1,8.1-14.6,17.9-22,26.6c-5.2,6.1-8.5,12.8-7.4,21.5c0.6,5.3,3.9,9.2,5.8,13.7
		c-9.4,2.8-18.3-0.2-23.1-7.8c-5.1-8.1-4.7-18.7,1.1-27.2C111.3,299.5,112.2,298.3,111.9,296.5z"/>
	<path class="st9" d="M223.5,357.3c4.7-1.5,9.2-4.2,14.5-3.3c4.2,0.7,8.2,1.7,11.2,5.4c-3.7,1-6.2,3.8-8.6,6.7
		c-5.7,7.1-11.3,14.2-16.7,21.4c-7.9,10.4-8.3,22,0.9,31.7c-9.8,6.5-26.6-1.3-27.6-18.1c-0.3-4.2,1-8,2.1-11.8
		C207.9,379.1,215.5,368,223.5,357.3z"/>
	<path class="st3" d="M162.8,300.7c4.3-1.3,8.2-3.7,13-3.3c4.6,0.3,8.4,1.9,11.6,5.4c-2.9,1.9-5.7,4.2-7.9,7
		c-6.1,7.8-12.5,15.4-18.3,23.5c-7,9.8-5.6,22.3,2.7,29.3c-12.2,7.3-26.4-3.5-27.5-16.3c-0.4-4.2,0.1-8.4,1-12.6c0,0,0,0,0,0
		c0.3-0.4,0.7-0.7,1-1.1c7.8-10.3,15.7-20.6,23.5-30.9C162.3,301.4,162.6,301.1,162.8,300.7L162.8,300.7z"/>
	<path class="st7" d="M335.5,352.7c-9.4-7.8-18.7-15.7-28.1-23.5c-6.9-5.7-7.3-12.9-1.1-18.7c3.9-3.6,8-3,11.7,0
		c16,13.2,31.9,26.6,47.8,40c0.2,0.2,0.4,0.6,0.6,0.8c-2.7,5.7-11.5,9-18.8,7.7c-4.4-0.8-7.9-4.1-12.2-5c0,0,0,0,0,0
		C335.5,353.6,335.5,353.2,335.5,352.7z"/>
	<path class="st8" d="M294.9,380.8c-7-6-13.9-12.1-21-18.1c-4.1-3.5-5.7-10.5-3.1-14.5c3.3-5.1,10.1-6.8,14.6-3.1
		c14.4,11.8,28.6,23.8,42.8,35.8c0.8,0.6,1.3,1.6,1.9,2.4c-2,5.1-6.4,6.1-10.6,6.9c-6.9,1.3-13.5-0.1-19.2-5.1
		C298.6,383.6,296.7,382.3,294.9,380.8z"/>
	<path class="st2" d="M223.5,357.3c-8,10.7-15.6,21.7-24.2,31.9c-1.7,0.7-3.4,1.4-5,2.2c-9.3-12.7-9.4-19.1-0.3-32.5
		c1.7-2.5,3.4-5.2,5.5-7.4c5.2-5.8,9.2-12.8,15-17.9c1.3-1.2,2.6-2.1,4.3-1.9C226.2,339,227.1,347.7,223.5,357.3z"/>
	<path class="st2" d="M224.8,419.2c-9.2-9.7-8.8-21.3-0.9-31.7c5.5-7.2,11.1-14.3,16.7-21.4c2.3-2.9,4.9-5.7,8.6-6.7
		c7.9,7.5,9,21.1,2.5,29.9c-2.6,3.5-6,6.3-7.5,10.8c-4.5,3.4-7.3,8.5-10.7,12.9C231,416,228.6,418.6,224.8,419.2z"/>
	<path class="st2" d="M162,301.8c-7.8,10.3-15.7,20.6-23.5,30.9c-0.3,0.4-0.7,0.7-1,1.1c0,0,0,0,0,0c-1.7,0.7-3.3,1.4-5,2
		c-1.9-4.6-5.2-8.5-5.8-13.7c-1.1-8.6,2.2-15.4,7.4-21.5c7.5-8.7,13.9-18.5,22-26.6c6.9,5.2,9.6,13.3,7.5,23.1
		c-0.2,1.2-0.5,2.4-0.7,3.6c0,0,0,0,0,0C162.6,301.1,162.3,301.4,162,301.8z"/>
	<path class="st2" d="M164,362.7c-8.3-7-9.7-19.5-2.7-29.3c5.8-8.1,12.1-15.7,18.3-23.5c2.2-2.9,5-5.1,7.9-7
		c6.3,5.7,8.7,12.8,6.8,21.6c-0.4,1.7-0.7,3.4-1.1,5.1c-5.7,6.3-10.4,13.5-15.6,20.2c-2.8,3.6-5.8,7.1-8.7,10.6
		c-0.4,0.4-0.7,0.7-1.1,1.1c0,0,0,0,0,0C166.5,361.9,165.2,362.3,164,362.7z"/>
	<path class="st10" d="M370.8,321c0.3,0.4,0.7,0.7,1,1.1C371.1,322.1,370.8,321.7,370.8,321z"/>
	<path class="st10" d="M335.5,352.7c0,0.5,0,0.9,0,1.4C334.5,353.6,334.9,353.2,335.5,352.7z"/>
	<path class="st10" d="M167.8,361.6c0.4-0.4,0.7-0.7,1.1-1.1C168.5,360.8,168.1,361.2,167.8,361.6z"/>
	<path class="st1" d="M162,301.8c0.3-0.4,0.6-0.7,0.9-1.1C162.6,301.1,162.3,301.4,162,301.8z"/>
	<path class="st10" d="M137.4,333.8c0.3-0.4,0.7-0.7,1-1.1C138.1,333.1,137.7,333.5,137.4,333.8z"/>
</g>
</svg>
